<svg width="657" height="54" viewBox="0 0 657 54" fill="none" xmlns="http://www.w3.org/2000/svg">
<path d="M24.8405 21.3607V24.9634H34.0651C33.8202 26.9563 33.0855 28.4894 31.9426 29.4859C30.6365 30.7123 28.514 32.0921 24.8405 32.0921C19.2078 32.0921 14.7996 27.7995 14.7996 22.5105C14.7996 17.2214 19.1262 12.9289 24.8405 12.9289C27.861 12.9289 30.1467 14.0787 31.7794 15.5351L34.4733 13.0055C32.1875 10.9359 29.0855 9.32617 24.8405 9.32617C17.0854 9.32617 10.5547 15.2284 10.5547 22.5105C10.5547 29.7925 17.0854 35.6948 24.8405 35.6948C29.0038 35.6948 32.1875 34.3917 34.6365 32.0154C37.1672 29.6392 37.9835 26.2665 37.9835 23.5836C37.9835 22.7404 37.9019 21.9739 37.8202 21.3607H24.8405Z" fill="white"/>
<path d="M48.807 18.3721C43.8274 18.3721 39.6641 21.9748 39.6641 26.8805C39.6641 31.7863 43.7457 35.389 48.807 35.389C53.8683 35.389 57.9499 31.863 57.9499 26.9572C57.9499 21.9748 53.8683 18.3721 48.807 18.3721ZM48.807 32.0929C46.0315 32.0929 43.6641 29.9467 43.6641 26.9572C43.6641 23.8911 46.0315 21.8214 48.807 21.8214C51.5825 21.8214 53.9499 23.8911 53.9499 26.9572C53.9499 29.9467 51.5825 32.0929 48.807 32.0929Z" fill="white"/>
<path d="M93.0623 20.2875H92.899C92.001 19.2911 90.2867 18.3712 88.0826 18.3712C83.5112 18.3712 79.5928 22.0506 79.5928 26.8797C79.5928 31.6322 83.5112 35.3882 88.0826 35.3882C90.2867 35.3882 92.001 34.4683 92.899 33.4718H93.0623V34.6983C93.0623 37.9177 91.1847 39.6807 88.2459 39.6807C85.7969 39.6807 84.3275 38.071 83.6744 36.6146L80.2458 37.9944C81.2254 40.2173 83.9193 43.0534 88.3275 43.0534C92.9807 43.0534 96.9807 40.4473 96.9807 34.1617V18.8311H93.2256V20.2875H93.0623ZM88.4908 32.0921C85.7153 32.0921 83.6744 29.8691 83.6744 26.9563C83.6744 23.9669 85.7969 21.8206 88.4908 21.8206C91.1847 21.8206 93.3072 24.0435 93.3072 27.033C93.3888 29.9458 91.2663 32.0921 88.4908 32.0921Z" fill="white"/>
<path d="M68.7709 18.3712C63.7912 18.3712 59.6279 21.9739 59.6279 26.8797C59.6279 31.7855 63.7096 35.3882 68.7709 35.3882C73.8321 35.3882 77.9138 31.8621 77.9138 26.9563C77.9138 21.9739 73.8321 18.3712 68.7709 18.3712ZM68.7709 32.0921C65.9953 32.0921 63.628 29.9458 63.628 26.9563C63.628 23.8902 65.9953 21.8206 68.7709 21.8206C71.5464 21.8206 73.9138 23.8902 73.9138 26.9563C73.9138 29.9458 71.5464 32.0921 68.7709 32.0921Z" fill="white"/>
<path d="M98.6602 9.70996H102.579V35.4653H98.6602V9.70996Z" fill="white"/>
<path d="M113.237 32.0921C111.197 32.0921 109.809 31.2489 108.829 29.4859L120.993 24.8101L120.584 23.8136C119.85 21.8972 117.482 18.3712 112.829 18.3712C108.176 18.3712 104.258 21.8206 104.258 26.8797C104.258 31.6322 108.095 35.3882 113.237 35.3882C117.401 35.3882 119.768 33.0119 120.829 31.6322L117.727 29.7158C116.666 31.1722 115.278 32.0921 113.237 32.0921ZM112.993 21.5906C114.625 21.5906 116.013 22.3572 116.421 23.4303L108.258 26.6497C108.176 23.1237 110.952 21.5906 112.993 21.5906Z" fill="white"/>
<path fill-rule="evenodd" clip-rule="evenodd" d="M312.141 36.8867C304.821 42.0458 294.212 44.7983 285.077 44.7983C272.268 44.7983 260.738 40.2684 252.014 32.7343C251.329 32.1418 251.943 31.3344 252.765 31.7958C262.18 37.0335 273.82 40.1845 285.844 40.1845C293.954 40.1845 302.875 38.5802 311.077 35.2509C312.317 34.7475 313.353 36.0268 312.141 36.8867Z" fill="white"/>
<path fill-rule="evenodd" clip-rule="evenodd" d="M315.184 33.5585C314.252 32.4155 308.999 33.0185 306.641 33.2859C305.923 33.3698 305.813 32.7721 306.46 32.3421C310.644 29.5267 317.509 30.3393 318.309 31.2831C319.11 32.232 318.101 38.812 314.17 41.9525C313.566 42.4348 312.991 42.1779 313.259 41.5383C314.142 39.4306 316.122 34.7067 315.184 33.5585Z" fill="white"/>
<path fill-rule="evenodd" clip-rule="evenodd" d="M306.805 12.466V9.72918C306.805 9.31499 307.134 9.03711 307.529 9.03711H320.343C320.754 9.03711 321.083 9.32023 321.083 9.72918V12.0728C321.078 12.466 320.732 12.9798 320.118 13.7925L313.478 22.8576C315.946 22.7999 318.55 23.1512 320.787 24.357C321.292 24.6297 321.429 25.0281 321.467 25.4214V28.3417C321.467 28.7402 321.006 29.2068 320.524 28.9656C316.582 26.989 311.345 26.7741 306.986 28.9866C306.542 29.2173 306.076 28.7559 306.076 28.3574V25.5839C306.076 25.1383 306.082 24.378 306.548 23.7017L314.24 13.1528H307.546C307.134 13.1528 306.805 12.875 306.805 12.466Z" fill="white"/>
<path fill-rule="evenodd" clip-rule="evenodd" d="M260.064 29.542H256.165C255.792 29.5158 255.496 29.2484 255.469 28.9076V9.77609C255.469 9.39335 255.803 9.08926 256.22 9.08926H259.855C260.234 9.10497 260.535 9.38286 260.562 9.7289V12.2298H260.634C261.582 9.81278 263.364 8.68555 265.766 8.68555C268.206 8.68555 269.73 9.81278 270.827 12.2298C271.77 9.81278 273.914 8.68555 276.211 8.68555C277.845 8.68555 279.632 9.33043 280.724 10.7775C281.957 12.3871 281.705 14.7254 281.705 16.7754L281.7 28.85C281.7 29.2327 281.365 29.542 280.948 29.542H277.055C276.666 29.5158 276.354 29.217 276.354 28.85V18.7101C276.354 17.9027 276.43 15.8894 276.244 15.1239C275.953 13.8394 275.082 13.4776 273.952 13.4776C273.009 13.4776 272.022 14.0806 271.622 15.0453C271.221 16.01 271.26 17.6248 271.26 18.7101V28.85C271.26 29.2327 270.925 29.542 270.509 29.542H266.616C266.221 29.5158 265.914 29.217 265.914 28.85L265.908 18.7101C265.908 16.5762 266.276 13.4357 263.507 13.4357C260.705 13.4357 260.815 16.4976 260.815 18.7101V28.85C260.815 29.2327 260.48 29.542 260.064 29.542Z" fill="white"/>
<path fill-rule="evenodd" clip-rule="evenodd" d="M332.116 8.68555C337.9 8.68555 341.031 13.4357 341.031 19.4756C341.031 25.311 337.571 29.9405 332.116 29.9405C326.435 29.9405 323.343 25.1904 323.343 19.2711C323.343 13.3151 326.474 8.68555 332.116 8.68555ZM332.149 12.5916C329.275 12.5916 329.094 16.335 329.094 18.6681C329.094 21.0065 329.056 25.9978 332.116 25.9978C335.137 25.9978 335.279 21.9712 335.279 19.5175C335.279 17.9027 335.208 15.9733 334.698 14.4423C334.259 13.1106 333.388 12.5916 332.149 12.5916Z" fill="white"/>
<path fill-rule="evenodd" clip-rule="evenodd" d="M348.531 29.542H344.649C344.259 29.5158 343.947 29.217 343.947 28.85L343.941 9.71317C343.974 9.36189 344.298 9.08926 344.693 9.08926H348.306C348.646 9.10497 348.925 9.32519 349.002 9.62404V12.5496H349.074C350.165 9.93337 351.694 8.68555 354.387 8.68555C356.136 8.68555 357.841 9.28849 358.937 10.94C359.957 12.471 359.957 15.0453 359.957 16.896V28.9391C359.913 29.2747 359.59 29.542 359.206 29.542H355.297C354.94 29.5158 354.644 29.2642 354.606 28.9391V18.5476C354.606 16.4556 354.858 13.3937 352.166 13.3937C351.217 13.3937 350.346 14.0019 349.912 14.9247C349.364 16.0939 349.293 17.2578 349.293 18.5476V28.85C349.287 29.2327 348.947 29.542 348.531 29.542Z" fill="white"/>
<path fill-rule="evenodd" clip-rule="evenodd" d="M296.591 20.4025C296.591 21.8548 296.63 23.0659 295.862 24.3557C295.243 25.4043 294.256 26.0492 293.165 26.0492C291.668 26.0492 290.79 24.9586 290.79 23.349C290.79 20.1718 293.768 19.5951 296.591 19.5951V20.4025ZM300.523 29.4886C300.265 29.7088 299.892 29.7245 299.602 29.5777C298.308 28.5501 298.072 28.073 297.365 27.0925C295.226 29.1792 293.707 29.8031 290.938 29.8031C287.654 29.8031 285.104 27.8685 285.104 23.9939C285.104 20.9687 286.815 18.9083 289.261 17.9016C291.377 17.0103 294.332 16.853 296.591 16.6066V16.1242C296.591 15.2382 296.663 14.1896 296.114 13.4241C295.643 12.7373 294.733 12.4542 293.927 12.4542C292.441 12.4542 291.119 13.1829 290.796 14.6929C290.73 15.0285 290.472 15.3588 290.116 15.3745L286.338 14.9865C286.02 14.9184 285.664 14.6719 285.757 14.2053C286.623 9.82221 290.768 8.50098 294.475 8.50098C296.372 8.50098 298.85 8.98333 300.347 10.357C302.244 12.0505 302.063 14.3102 302.063 16.7691V22.5783C302.063 24.3242 302.82 25.0897 303.533 26.0334C303.78 26.369 303.835 26.7727 303.516 27.0244C302.721 27.6588 301.307 28.8384 300.528 29.499L300.523 29.4886Z" fill="white"/>
<path fill-rule="evenodd" clip-rule="evenodd" d="M245.485 20.4025C245.485 21.8548 245.523 23.0659 244.756 24.3557C244.136 25.4043 243.155 26.0492 242.058 26.0492C240.561 26.0492 239.689 24.9586 239.689 23.349C239.689 20.1718 242.667 19.5951 245.485 19.5951V20.4025ZM249.416 29.4886C249.159 29.7088 248.786 29.7245 248.495 29.5777C247.201 28.5501 246.971 28.073 246.258 27.0925C244.12 29.1792 242.606 29.8031 239.832 29.8031C236.553 29.8031 233.998 27.8685 233.998 23.9939C233.998 20.9687 235.714 18.9083 238.154 17.9016C240.271 17.0103 243.226 16.853 245.485 16.6066V16.1242C245.485 15.2382 245.556 14.1896 245.013 13.4241C244.536 12.7373 243.626 12.4542 242.826 12.4542C241.34 12.4542 240.013 13.1829 239.689 14.6929C239.624 15.0285 239.366 15.3588 239.015 15.3745L235.232 14.9865C234.914 14.9184 234.563 14.6719 234.651 14.2053C235.522 9.82221 239.662 8.50098 243.369 8.50098C245.266 8.50098 247.744 8.98333 249.241 10.357C251.138 12.0505 250.957 14.3102 250.957 16.7691V22.5783C250.957 24.3242 251.714 25.0897 252.426 26.0334C252.679 26.369 252.734 26.7727 252.416 27.0244C251.62 27.6588 250.206 28.8384 249.427 29.499L249.416 29.4886Z" fill="white"/>
<g clip-path="url(#clip0_15_1659)">
<path d="M500.993 9.27857C496.355 6.44691 490.248 7.12156 484.801 10.4652C479.372 7.12156 473.261 6.44691 468.628 9.27857C461.299 13.7534 460.408 25.2778 466.64 35.0204C471.233 42.2031 478.416 46.4117 484.811 46.3341C491.205 46.4117 498.388 42.2031 502.982 35.0204C509.206 25.2778 508.322 13.7534 500.993 9.27857ZM470.009 32.9632C468.724 30.973 467.754 28.8044 467.133 26.531C466.581 24.5575 466.37 22.5079 466.509 20.4666C466.787 16.866 468.287 14.0621 470.732 12.5705C473.176 11.0789 476.407 10.9883 479.848 12.3228C480.365 12.5243 480.876 12.7571 481.383 13.0141C479.47 14.7176 477.807 16.6706 476.441 18.8179C472.657 24.7326 471.503 31.3145 472.824 36.5619C471.771 35.4522 470.828 34.2472 470.009 32.9632ZM502.49 26.5291C501.868 28.8023 500.898 30.9708 499.614 32.9614C498.794 34.2472 497.851 35.4546 496.799 36.5675C497.98 31.8635 497.178 26.1003 494.283 20.6958C494.19 20.5158 494.022 20.3829 493.823 20.33C493.624 20.2772 493.411 20.3093 493.237 20.4185L484.213 25.9266C484.047 26.0279 483.928 26.1897 483.884 26.3762C483.84 26.5628 483.874 26.7588 483.978 26.921L485.302 28.9893C485.406 29.1516 485.571 29.267 485.762 29.31C485.952 29.353 486.153 29.3201 486.318 29.2185L492.168 25.6475C492.357 26.202 492.546 26.7565 492.688 27.311C493.24 29.282 493.452 31.329 493.314 33.368C493.036 36.9667 491.536 39.7707 489.092 41.2641C487.831 42.0172 486.386 42.4258 484.909 42.4471C484.877 42.4471 484.843 42.4471 484.811 42.4471H484.722C483.244 42.4262 481.799 42.0176 480.539 41.2641C478.093 39.7707 476.592 36.9667 476.314 33.368C476.177 31.3267 476.388 29.2772 476.939 27.3036C478.207 22.7375 480.827 18.6394 484.472 15.5241C486.044 14.1763 487.834 13.0932 489.769 12.3191C493.201 10.9846 496.438 11.0733 498.884 12.5668C501.33 14.0602 502.828 16.8623 503.107 20.4629C503.247 22.5044 503.038 24.5545 502.49 26.5291ZM549.071 22.2281C544.326 22.2281 540.491 25.8471 540.491 30.4513C540.491 35.0241 544.326 38.584 549.071 38.584C553.847 38.584 557.682 35.0297 557.682 30.4513C557.682 25.849 553.853 22.2299 549.071 22.2299V22.2281ZM549.071 34.2848C546.884 34.2848 545.219 32.5566 545.219 30.4199C545.219 28.2832 546.884 26.5291 549.071 26.5291C551.29 26.5291 552.954 28.2888 552.954 30.4254C552.954 32.5621 551.29 34.2922 549.071 34.2922V34.2848ZM568.38 15.9121H559.65C559.459 15.9087 559.275 15.9812 559.141 16.1131C559.006 16.245 558.932 16.4247 558.936 16.6109V37.4066C558.923 37.5991 558.992 37.7884 559.127 37.9289C559.263 38.0693 559.452 38.148 559.65 38.146H568.38C575.367 38.146 580.221 33.6064 580.221 27.0023C580.221 20.3575 575.367 15.9121 568.38 15.9121ZM568.587 33.7543H563.81V20.2928H568.587C572.454 20.2928 575.119 23.1189 575.119 26.9931C575.119 30.8025 572.454 33.7543 568.587 33.7543ZM597.6 22.6753H594.318C593.941 22.7044 593.648 23.0055 593.636 23.374V24.3259C592.889 23.119 591.2 22.2299 589.096 22.2299C585.002 22.2299 581.167 25.3721 581.167 30.3903C581.167 35.3808 584.968 38.5803 589.064 38.5803C591.175 38.5803 592.899 37.6931 593.646 36.4862V37.4695C593.648 37.8364 593.951 38.1337 594.327 38.1367H597.609C597.792 38.1408 597.968 38.0718 598.097 37.9458C598.226 37.8198 598.296 37.6477 598.292 37.4695V23.374C598.298 23.1909 598.227 23.0134 598.097 22.8818C597.967 22.7502 597.787 22.6758 597.6 22.6753ZM589.964 34.3199C587.791 34.3199 586.158 32.6878 586.158 30.4236C586.158 28.1594 587.791 26.5291 589.964 26.5291C592.138 26.5291 593.771 28.1575 593.771 30.4217C593.771 32.686 592.14 34.3181 589.964 34.3181V34.3199ZM616.024 15.9123H612.742C612.556 15.9068 612.376 15.9744 612.242 16.0998C612.108 16.2253 612.031 16.3981 612.029 16.5795V24.2631C611.272 23.1189 609.558 22.2299 607.415 22.2299C603.351 22.2299 599.582 25.3721 599.582 30.3903C599.582 35.3808 603.383 38.5803 607.479 38.5803C609.59 38.5803 611.183 37.6931 612.061 36.4862V37.4695C612.062 37.8368 612.366 38.1347 612.742 38.1367H616.024C616.207 38.1413 616.383 38.0725 616.513 37.9464C616.642 37.8202 616.712 37.6478 616.707 37.4695V16.5832C616.713 16.4042 616.643 16.2308 616.514 16.1039C616.385 15.9769 616.208 15.9076 616.024 15.9123ZM608.389 34.3587C606.225 34.3587 604.605 32.71 604.605 30.4217C604.605 28.1335 606.23 26.4848 608.389 26.4848C610.548 26.4848 612.173 28.1335 612.173 30.4217C612.173 32.71 610.555 34.3587 608.389 34.3587ZM634.445 15.9123H631.169C630.983 15.9068 630.803 15.9743 630.668 16.0997C630.534 16.2251 630.456 16.398 630.453 16.5795V24.2631C629.706 23.1189 627.983 22.2299 625.839 22.2299C621.776 22.2299 618.007 25.3721 618.007 30.3903C618.007 35.3808 621.81 38.5803 625.904 38.5803C628.017 38.5803 629.608 37.6931 630.486 36.4862V37.4695C630.488 37.8371 630.792 38.1347 631.169 38.1367H634.445C634.628 38.1414 634.804 38.0725 634.933 37.9463C635.062 37.8201 635.132 37.6476 635.126 37.4695V16.5832C635.133 16.4044 635.063 16.231 634.934 16.104C634.805 15.9769 634.628 15.9076 634.445 15.9123ZM626.81 34.3587C624.644 34.3587 623.026 32.71 623.026 30.4217C623.026 28.1335 624.651 26.4848 626.81 26.4848C628.968 26.4848 630.593 28.1335 630.593 30.4217C630.593 32.71 628.98 34.3587 626.815 34.3587H626.81ZM652.418 23.7566L647.52 40.168C646.574 43.0884 644.464 44.8351 641.182 44.8351C639.689 44.8351 638.331 44.5375 637.266 43.9424C636.645 43.5967 636.131 43.2807 636.131 42.7742C636.131 42.46 636.235 42.2973 636.424 42.0035L637.396 40.5802C637.671 40.1828 637.873 40.0535 638.168 40.0535C638.402 40.0591 638.628 40.136 638.815 40.2734C639.426 40.6597 639.994 40.9924 640.859 40.9924C641.869 40.9924 642.641 40.6763 643.057 39.5008L643.477 38.1386H641.494C641.006 38.1386 640.737 37.8539 640.616 37.4713L636.233 23.7566C636.07 23.2169 636.22 22.6772 637.031 22.6772H640.484C640.906 22.6772 641.201 22.8177 641.386 23.4073L644.623 34.4511L647.65 23.4073C647.747 23.0265 648.008 22.6772 648.528 22.6772H651.803C652.448 22.6753 652.643 23.119 652.418 23.7566ZM539.254 28.6381V37.4048C539.257 37.5979 539.18 37.7839 539.04 37.9205C538.9 38.057 538.71 38.1324 538.512 38.1293H535.803C535.605 38.1329 535.415 38.0577 535.275 37.921C535.135 37.7844 535.058 37.598 535.061 37.4048V35.1036C533.342 37.2255 530.351 38.5618 526.968 38.5618C520.615 38.5618 515.651 33.8929 515.651 27.2463C515.651 20.339 521.011 15.5777 527.782 15.5777C532.78 15.5777 536.775 17.6774 538.55 21.9009C538.6 22.0125 538.627 22.1323 538.631 22.2539C538.631 22.4535 538.497 22.6051 538.064 22.7511L534.901 23.9415C534.71 24.0188 534.496 24.0221 534.303 23.9507C534.133 23.853 534.001 23.7046 533.924 23.5274C532.789 21.4185 530.769 19.986 527.659 19.986C523.625 19.986 520.737 23.0635 520.737 27.0541C520.737 30.9226 523.196 34.1036 527.774 34.1036C530.182 34.1036 532.103 32.9946 532.997 31.7766H530.141C529.943 31.7796 529.753 31.7042 529.613 31.5677C529.473 31.4312 529.396 31.2451 529.399 31.052V28.6695C529.396 28.4764 529.473 28.2904 529.613 28.1538C529.753 28.0173 529.943 27.9419 530.141 27.945H538.512C538.706 27.9353 538.896 28.0042 539.036 28.1353C539.176 28.2665 539.255 28.4484 539.254 28.6381ZM652.507 19.4297V19.2171C652.506 19.2022 652.512 19.1877 652.522 19.1764C652.533 19.167 652.547 19.1617 652.561 19.1617H653.944C653.959 19.1612 653.973 19.1665 653.984 19.1764C653.994 19.1877 653.999 19.2022 653.999 19.2171V19.4297C653.999 19.444 653.994 19.4578 653.984 19.4685C653.973 19.4784 653.959 19.4838 653.944 19.4833H653.439V20.8159C653.438 20.8461 653.413 20.8704 653.382 20.8714H653.121C653.107 20.8713 653.093 20.8653 653.084 20.8547C653.073 20.8446 653.067 20.8306 653.067 20.8159V19.4833H652.561C652.547 19.4844 652.532 19.4791 652.521 19.4688C652.511 19.4585 652.505 19.4442 652.507 19.4297ZM654.924 19.2097L655.303 20.0655L655.681 19.2097C655.687 19.1945 655.697 19.1816 655.711 19.1727C655.727 19.1648 655.745 19.161 655.762 19.1617H656.201C656.216 19.1606 656.23 19.1656 656.241 19.1755C656.251 19.1854 656.257 19.1992 656.256 19.2134V20.8178C656.257 20.832 656.252 20.8459 656.242 20.8562C656.232 20.8664 656.218 20.8719 656.203 20.8714H655.957C655.942 20.8719 655.928 20.8665 655.918 20.8566C655.907 20.8465 655.901 20.8323 655.902 20.8178V19.6071L655.496 20.4869C655.49 20.5035 655.479 20.5182 655.465 20.5294C655.45 20.5378 655.432 20.5417 655.414 20.5405H655.214C655.197 20.5414 655.18 20.5376 655.165 20.5294C655.15 20.5188 655.139 20.5039 655.134 20.4869L654.729 19.6071V20.8178C654.729 20.8321 654.724 20.8459 654.714 20.8566C654.704 20.8656 654.69 20.8709 654.676 20.8714H654.425C654.411 20.8715 654.398 20.8661 654.389 20.8566C654.378 20.8465 654.373 20.8323 654.374 20.8178V19.2134C654.373 19.1992 654.379 19.1854 654.389 19.1755C654.4 19.1656 654.414 19.1606 654.429 19.1617H654.854C654.871 19.1612 654.888 19.165 654.903 19.1727C654.914 19.1829 654.921 19.1957 654.924 19.2097Z" fill="white"/>
</g>
<defs>
<clipPath id="clip0_15_1659">
<rect width="194" height="39" fill="white" transform="translate(462.25 7.5)"/>
</clipPath>
</defs>
</svg>
