<svg width="166" height="38" viewBox="0 0 166 38" fill="none" xmlns="http://www.w3.org/2000/svg">
<g clip-path="url(#clip0_15_1616)">
<path d="M86.9512 22.8885C82.8293 22.8885 79.5627 26.0781 79.5627 30.2781C79.5627 34.4781 82.9075 37.6666 86.9512 37.6666C91.073 37.6666 94.3408 34.4 94.3408 30.2781C94.3408 26.0781 91.0742 22.8885 86.9512 22.8885ZM86.9512 25.8448C89.4397 25.8448 91.3063 27.7115 91.3063 30.2781C91.3063 32.8448 89.3627 34.7115 86.9512 34.7115C84.4627 34.7115 82.596 32.8448 82.596 30.2781C82.5178 27.7115 84.4627 25.8448 86.9512 25.8448ZM148.473 32.9218V26.1551H151.973V23.2H148.473V19.2333L145.44 20.1666V23.2H142.873V26.1551H145.44V32.9218C145.44 36.5781 147.306 37.9 151.973 37.2781V34.5551C149.64 34.7115 148.473 34.7115 148.473 32.9218ZM164.183 34.4781H157.261L164.183 26.1551V23.3551H153.451V26.1551H160.373L153.451 34.4781V37.3551H164.183V34.4781ZM102.896 23.0448V26.3115C100.873 26.1551 98.5396 27.0885 98.5396 30.2781V37.3551H95.5063V23.2781H98.5396V25.6115C99.396 23.7448 101.106 23.0448 102.896 23.0448ZM110.206 22.8885C106.084 22.8885 102.818 26.0781 102.818 30.2781C102.818 34.4781 106.163 37.6666 110.206 37.6666C114.329 37.6666 117.596 34.4 117.596 30.2781C117.673 26.0781 114.406 22.8885 110.206 22.8885ZM110.206 25.8448C112.696 25.8448 114.563 27.7115 114.563 30.2781C114.563 32.8448 112.618 34.7115 110.206 34.7115C107.718 34.7115 105.851 32.8448 105.851 30.2781C105.851 27.7115 107.796 25.8448 110.206 25.8448ZM137.661 23.2781L133.228 37.3551H130.273L127.318 27.8666L124.363 37.3551H121.406L116.973 23.2781H120.163L122.884 33L125.84 23.2781H128.718L131.673 33L134.395 23.2781H137.661ZM141.706 23.2781H138.673V37.3551H141.706V23.2781ZM43.0063 1.26665V7.09998C41.8397 6.24481 40.2075 5.54481 38.6523 5.54481C34.296 5.54481 30.796 9.35515 31.2627 13.7885C31.6523 17.2115 34.4523 20.0115 37.8742 20.4C39.819 20.5551 41.6075 20.0115 43.0075 19V20.0885H46.119V0.333313L43.0063 1.26665ZM42.9293 13.0115C42.9307 13.6612 42.7849 14.3028 42.503 14.8881C42.2211 15.4735 41.8104 15.9875 41.3017 16.3915C40.7929 16.7956 40.1992 17.0792 39.5652 17.2212C38.9313 17.3632 38.2733 17.3599 37.6408 17.2115C36.0075 16.9 34.6856 15.5781 34.296 13.8666C33.7523 11.0666 35.9293 8.57815 38.6523 8.57815C40.9856 8.57815 42.9293 10.5218 42.9293 13.0115ZM12.9857 6.01148V6.94481C11.819 6.08848 10.2638 5.54481 8.70749 5.54481C4.35349 5.54481 0.853487 9.35515 1.32015 13.7885C1.70865 17.2115 4.50865 20.0115 7.93165 20.4C9.87532 20.5551 11.665 20.0115 13.065 19V20.0885H16.1753V6.01148H12.9857ZM12.9857 13.0115C12.987 13.6612 12.8413 14.3028 12.5594 14.8881C12.2775 15.4735 11.8668 15.9875 11.358 16.3915C10.8492 16.7956 10.2556 17.0792 9.62158 17.2212C8.98759 17.3632 8.32967 17.3599 7.69715 17.2115C6.06382 16.9 4.74082 15.5781 4.35232 13.8666C3.80749 11.0666 5.98565 8.57815 8.70749 8.57815C11.0408 8.57815 12.9857 10.5218 12.9857 13.0115ZM24.7293 5.62181C22.7857 5.62181 21.3075 6.32181 20.3742 7.79998V5.93331H17.3408V20.0115H20.3742V12.4666C20.3742 9.58848 21.9305 8.42181 23.9523 8.42181C25.896 8.42181 27.0627 9.51148 27.0627 11.6885V20.0115H30.096V11.4551C30.1742 7.79998 27.919 5.62181 24.7293 5.62181ZM81.2742 15.8885C80.5742 16.9 79.3293 17.6 77.6178 17.6C75.3627 17.6 73.5742 16.5115 73.1075 14.2551H84.3075C84.3845 13.8666 84.3845 13.4 84.3845 13.0115C84.3845 8.96665 81.5075 5.62181 77.3075 5.62181C72.8742 5.62181 69.9178 8.88848 69.9178 13.0115C69.9178 17.2115 72.9512 20.4 77.5408 20.4C80.2626 20.4 82.4408 19.2333 83.6845 17.3666L81.2742 15.8885ZM77.3845 8.42181C79.2512 8.42181 80.9627 9.43331 81.4293 11.8448H73.1075C73.5742 9.74481 75.1293 8.42181 77.3845 8.42181ZM116.04 17.6781C117.751 17.6781 118.996 16.9 119.696 15.9666L122.184 17.4448C120.863 19.3885 118.763 20.4781 116.04 20.4781C111.373 20.4781 108.418 17.2885 108.418 13.0885C108.418 8.88848 111.451 5.69998 115.806 5.69998C120.006 5.69998 122.884 9.04481 122.884 13.0885C122.884 13.2448 122.884 13.4781 122.806 13.7115C122.806 13.9448 122.729 14.1 122.729 14.3333H111.529C111.996 16.5115 113.784 17.6781 116.04 17.6781ZM119.773 11.8448C119.384 9.43331 117.596 8.42181 115.729 8.42181C113.473 8.42181 111.918 9.74481 111.451 11.8448H119.773ZM141.706 20.0885H138.673V17.3666H141.706V20.0885ZM124.363 20.0885H127.395V12.5448C127.395 9.66665 128.951 8.49998 130.973 8.49998C132.84 8.49998 134.084 9.66665 134.084 11.7666V20.0115H137.118V11.3781C137.118 7.72181 134.861 5.62181 131.751 5.62181C129.806 5.62181 128.328 6.32181 127.395 7.79998V6.01148H124.363V20.0885ZM88.4293 9.89998C88.4293 8.88848 89.3627 8.42181 90.4512 8.42181C91.5397 8.42181 92.473 8.88848 93.0178 9.82181L95.6627 8.49998C94.6512 6.71148 92.7845 5.62181 90.4512 5.62181C87.573 5.62181 85.3178 7.25515 85.3178 9.89998C85.3178 12.8551 87.8063 13.5551 89.9845 14.1781H90.0627C90.1397 14.1781 90.2178 14.2551 90.296 14.2551C91.7742 14.7218 92.8627 15.0333 92.8627 16.0448C92.8627 17.1333 91.8512 17.6 90.4512 17.6C89.1293 17.6 88.0397 17.0551 87.496 16.0448L84.7742 17.3666C85.7075 19.2333 87.7293 20.4 90.3742 20.4C93.4075 20.4 95.896 18.8448 95.896 16.0448C95.896 13.0115 93.2512 12.2333 91.1512 11.6885C89.7512 11.3 88.4293 10.9115 88.4293 9.89998ZM100.173 9.89998C100.173 8.88848 101.106 8.42181 102.196 8.42181C103.284 8.42181 104.218 8.88848 104.84 9.89998L107.484 8.57815C106.473 6.78848 104.529 5.69998 102.273 5.69998C99.396 5.69998 97.1397 7.33331 97.1397 9.97815C97.1397 12.9333 99.6293 13.6333 101.806 14.2551H102.04C103.44 14.7218 104.684 15.1115 104.684 16.1218C104.684 17.2115 103.596 17.6781 102.273 17.6781C100.873 17.6781 99.8627 17.1333 99.3178 16.1218L96.596 17.4448C97.5293 19.3115 99.473 20.4781 102.196 20.4781C105.306 20.4781 107.718 18.9218 107.718 16.1218C107.718 13.0885 105.229 12.3885 103.051 11.7666H102.973C102.818 11.7666 102.74 11.6885 102.584 11.6885C101.263 11.2218 100.173 10.9115 100.173 9.89998ZM54.7511 9.04481V5.77815C52.9627 5.77815 51.2512 6.47815 50.396 8.34481V6.01148H47.3627V20.0885H50.396V13.0115C50.396 9.82181 52.7293 8.88848 54.7511 9.04481ZM68.6741 17.3666V25.0666C69.6075 23.5885 71.0845 22.8885 73.0293 22.8885C76.1408 22.8885 78.396 24.9885 78.396 28.6448V37.3551H75.3627V29.0333C75.3627 26.9333 74.1178 25.7666 72.2512 25.7666C70.2293 25.7666 68.6741 26.9333 68.6741 29.8115V37.3551H65.6408V19.8551C64.7075 20.2448 63.696 20.4781 62.5293 20.4781C57.8627 20.4781 54.9075 17.2885 54.9075 13.0885C54.9075 8.88848 57.9408 5.69998 62.296 5.69998C66.496 5.69998 69.3741 9.04481 69.3741 13.0885C69.3741 13.2448 69.3742 13.4781 69.296 13.7115C69.296 13.9448 69.2178 14.1 69.2178 14.3333H58.0178C58.4845 16.5115 60.2742 17.6781 62.5293 17.6781C63.8512 17.6781 64.8627 17.2115 65.6408 16.5885C65.8742 16.4333 66.0293 16.2 66.1845 15.9666L68.6741 17.3666ZM66.2626 11.8448C65.796 9.43331 64.0845 8.42181 62.2178 8.42181C59.9627 8.42181 58.4075 9.74481 58.0178 11.8448H66.2626Z" fill="white"/>
</g>
<defs>
<clipPath id="clip0_15_1616">
<rect width="164.5" height="37.3333" fill="white" transform="translate(0.75 0.333313)"/>
</clipPath>
</defs>
</svg>
